<?xml version="1.0" standalone="no"?><!DOCTYPE svg PUBLIC "-//W3C//DTD SVG 1.1//EN" "http://www.w3.org/Graphics/SVG/1.1/DTD/svg11.dtd"><svg t="1624085370909" class="icon" viewBox="0 0 1120 1024" version="1.1" xmlns="http://www.w3.org/2000/svg" p-id="846" xmlns:xlink="http://www.w3.org/1999/xlink" width="100" height="100"><defs><style type="text/css"></style></defs><path d="M1111.505809 248.653913A36.541217 36.541217 0 0 0 1083.457113 235.408696H247.227548L195.137113 50.532174a35.84 35.84 0 0 0-33.613913-26.156522L37.196243 20.591304c-19.923478-1.001739-36.61913 14.914783-37.175652 34.615653-0.667826 19.70087 15.026087 36.285217 34.949566 36.953043l97.725217 2.893913 193.558261 686.970435c0 0.222609 0.111304 0.333913 0.222608 0.445217 1.113043 3.673043 2.782609 7.123478 4.786087 10.128696 0.111304 0.222609 0.333913 0.445217 0.556522 0.77913 2.003478 2.893913 4.563478 5.453913 7.346087 7.568696 0.222609 0.222609 0.445217 0.333913 0.667826 0.445217 2.893913 2.003478 6.010435 3.784348 9.46087 4.897392 0.222609 0.111304 0.445217 0.111304 0.667826 0.111304 3.450435 1.113043 7.012174 1.669565 10.796522 1.78087 0.111304 0 0.111304 0.111304 0.222608 0.111304h614.066087c17.029565 0 31.721739-11.798261 35.283479-28.382609l108.29913-501.314782a35.172174 35.172174 0 0 0-7.123478-29.94087z m-72.793044 58.323478l-27.046956 125.44c-0.222609 0-0.222609-0.111304-0.445218-0.111304H312.5632L280.952765 306.977391h757.76zM980.7232 575.443478H348.737113l-18.142609-71.568695h665.6l-15.471304 71.568695zM389.251896 736.723478l-22.483479-89.488695h598.483479l-19.255653 89.488695H389.251896z m107.965217 107.297392c-42.852174 0-77.690435 35.506087-77.690435 79.248695 0.111304 43.742609 34.838261 79.248696 77.690435 79.248696 42.852174 0 77.690435-35.506087 77.690435-79.248696s-34.726957-79.248696-77.690435-79.248695m364.076522 0c-42.852174 0-77.690435 35.506087-77.690435 79.248695s34.726957 79.248696 77.690435 79.248696c42.963478 0 77.690435-35.506087 77.690435-79.248696-0.111304-43.742609-34.838261-79.248696-77.690435-79.248695" p-id="847"></path></svg>